<svg width="149" height="72" viewBox="0 0 149 72" fill="none" xmlns="http://www.w3.org/2000/svg">
<path d="M11.2759 56.321V71.2528H2.94072V36.3438H11.0032V49.8778H11.293C11.8839 48.2642 12.8498 47.0028 14.1907 46.0938C15.543 45.1847 17.1964 44.7301 19.1509 44.7301C20.9919 44.7301 22.5941 45.1392 23.9578 45.9574C25.3214 46.7642 26.3782 47.9063 27.1282 49.3835C27.8896 50.8608 28.2646 52.5881 28.2532 54.5653V71.2528H19.918V56.2017C19.9294 54.7472 19.5657 53.6108 18.8271 52.7926C18.0884 51.9744 17.0487 51.5653 15.7078 51.5653C14.8328 51.5653 14.06 51.7585 13.3896 52.1449C12.7305 52.5199 12.2134 53.0597 11.8384 53.7642C11.4748 54.4688 11.2873 55.321 11.2759 56.321Z" fill="white"/>
<path d="M40.837 71.696C39.1666 71.696 37.6836 71.4176 36.3882 70.8608C35.1041 70.2926 34.087 69.4403 33.337 68.304C32.5984 67.1563 32.2291 65.7188 32.2291 63.9915C32.2291 62.5369 32.4848 61.3097 32.9961 60.3097C33.5075 59.3097 34.212 58.4972 35.1098 57.8722C36.0075 57.2472 37.0416 56.7756 38.212 56.4574C39.3825 56.1278 40.6325 55.9063 41.962 55.7926C43.4507 55.6563 44.6495 55.5142 45.5586 55.3665C46.4677 55.2074 47.1268 54.9858 47.5359 54.7017C47.9563 54.4063 48.1666 53.9915 48.1666 53.4574V53.3722C48.1666 52.4972 47.8654 51.821 47.2632 51.3438C46.6609 50.8665 45.8484 50.6278 44.8257 50.6278C43.7234 50.6278 42.837 50.8665 42.1666 51.3438C41.4961 51.821 41.07 52.4801 40.8882 53.321L33.2007 53.0483C33.4279 51.4574 34.0132 50.0369 34.9563 48.7869C35.9109 47.5256 37.2177 46.5369 38.8768 45.821C40.5473 45.0938 42.5529 44.7301 44.8938 44.7301C46.5643 44.7301 48.1041 44.929 49.5132 45.3267C50.9223 45.7131 52.1495 46.2813 53.195 47.0313C54.2404 47.7699 55.0473 48.679 55.6154 49.7585C56.195 50.8381 56.4848 52.071 56.4848 53.4574V71.2528H48.6438V67.6051H48.4393C47.9734 68.4915 47.3768 69.2415 46.6495 69.8551C45.9336 70.4688 45.087 70.929 44.1098 71.2358C43.1438 71.5426 42.0529 71.696 40.837 71.696ZM43.4109 66.2415C44.3086 66.2415 45.1154 66.0597 45.8313 65.696C46.5586 65.3324 47.1382 64.8324 47.57 64.196C48.0018 63.5483 48.2177 62.7983 48.2177 61.946V59.4574C47.9791 59.5824 47.6893 59.696 47.3484 59.7983C47.0188 59.9006 46.6552 59.9972 46.2575 60.0881C45.8598 60.179 45.4507 60.2585 45.0302 60.3267C44.6098 60.3949 44.2063 60.4574 43.82 60.5142C43.0359 60.6392 42.3654 60.8324 41.8086 61.0938C41.2632 61.3551 40.8427 61.696 40.5473 62.1165C40.2632 62.5256 40.1211 63.0142 40.1211 63.5824C40.1211 64.446 40.4279 65.1051 41.0416 65.5597C41.6666 66.0142 42.4563 66.2415 43.4109 66.2415Z" fill="white"/>
<path d="M61.5813 71.2528V36.3438H69.9166V49.554H70.087C70.4279 48.7585 70.9109 47.9915 71.5359 47.2528C72.1723 46.5142 72.9791 45.9119 73.9563 45.446C74.945 44.9688 76.1268 44.7301 77.5018 44.7301C79.32 44.7301 81.0188 45.2074 82.5984 46.1619C84.1893 47.1165 85.4734 48.5881 86.4507 50.5767C87.4279 52.5653 87.9166 55.0994 87.9166 58.179C87.9166 61.1449 87.445 63.6278 86.5018 65.6278C85.57 67.6278 84.3086 69.1278 82.7177 70.1278C81.1382 71.1278 79.3825 71.6278 77.4507 71.6278C76.1325 71.6278 74.9904 71.4119 74.0245 70.9801C73.0586 70.5483 72.2461 69.9801 71.587 69.2756C70.9393 68.571 70.4393 67.8153 70.087 67.0085H69.8313V71.2528H61.5813ZM69.7461 58.1619C69.7461 59.571 69.9336 60.7983 70.3086 61.8438C70.695 62.8892 71.2461 63.7017 71.962 64.2813C72.6893 64.8494 73.5586 65.1335 74.57 65.1335C75.5927 65.1335 76.462 64.8494 77.1779 64.2813C77.8938 63.7017 78.4336 62.8892 78.7973 61.8438C79.1723 60.7983 79.3598 59.571 79.3598 58.1619C79.3598 56.7528 79.1723 55.5313 78.7973 54.4972C78.4336 53.4631 77.8938 52.6619 77.1779 52.0938C76.4734 51.5256 75.6041 51.2415 74.57 51.2415C73.5473 51.2415 72.6779 51.5199 71.962 52.0767C71.2461 52.6335 70.695 53.429 70.3086 54.4631C69.9336 55.4972 69.7461 56.7301 69.7461 58.1619Z" fill="white"/>
<path d="M92.2845 71.2528V45.071H100.62V71.2528H92.2845ZM96.4606 42.0199C95.2902 42.0199 94.2845 41.6335 93.4436 40.8608C92.6027 40.0767 92.1822 39.1335 92.1822 38.0313C92.1822 36.9403 92.6027 36.0085 93.4436 35.2358C94.2845 34.4517 95.2902 34.0597 96.4606 34.0597C97.6424 34.0597 98.6481 34.4517 99.4777 35.2358C100.319 36.0085 100.739 36.9403 100.739 38.0313C100.739 39.1335 100.319 40.0767 99.4777 40.8608C98.6481 41.6335 97.6424 42.0199 96.4606 42.0199Z" fill="white"/>
<path d="M120.704 45.071V51.2074H104.186V45.071H120.704ZM107.647 38.7983H115.982V63.0199C115.982 63.5313 116.061 63.946 116.221 64.2642C116.391 64.571 116.635 64.7926 116.954 64.929C117.272 65.054 117.652 65.1165 118.096 65.1165C118.414 65.1165 118.749 65.0881 119.101 65.0313C119.465 64.9631 119.738 64.9063 119.919 64.8608L121.181 70.8778C120.783 70.9915 120.221 71.1335 119.493 71.304C118.777 71.4744 117.919 71.5824 116.919 71.6278C114.965 71.7188 113.289 71.4915 111.891 70.946C110.505 70.3892 109.442 69.5256 108.704 68.3551C107.976 67.1847 107.624 65.7131 107.647 63.9403V38.7983Z" fill="white"/>
<path d="M147.486 53.0653L139.833 53.2699C139.753 52.7244 139.537 52.2415 139.185 51.821C138.833 51.3892 138.373 51.054 137.804 50.8153C137.248 50.5653 136.6 50.4403 135.861 50.4403C134.895 50.4403 134.071 50.6335 133.39 51.0199C132.719 51.4063 132.39 51.929 132.401 52.5881C132.39 53.0994 132.594 53.5426 133.015 53.9176C133.446 54.2926 134.213 54.5938 135.316 54.821L140.361 55.7756C142.975 56.2756 144.918 57.1051 146.191 58.2642C147.475 59.4233 148.123 60.9574 148.134 62.8665C148.123 64.6619 147.588 66.2244 146.532 67.554C145.486 68.8835 144.054 69.9176 142.236 70.6563C140.418 71.3835 138.338 71.7472 135.998 71.7472C132.259 71.7472 129.31 70.9801 127.151 69.446C125.003 67.9006 123.776 65.8324 123.469 63.2415L131.702 63.0369C131.884 63.9915 132.355 64.7188 133.117 65.2188C133.878 65.7188 134.85 65.9688 136.032 65.9688C137.1 65.9688 137.969 65.7699 138.64 65.3722C139.31 64.9744 139.651 64.446 139.662 63.7869C139.651 63.196 139.39 62.7244 138.878 62.3722C138.367 62.0085 137.566 61.7244 136.475 61.5199L131.907 60.6506C129.282 60.1733 127.327 59.2926 126.043 58.0085C124.759 56.7131 124.123 55.0653 124.134 53.0653C124.123 51.3153 124.588 49.821 125.532 48.5824C126.475 47.3324 127.816 46.3778 129.554 45.7188C131.293 45.0597 133.344 44.7301 135.708 44.7301C139.253 44.7301 142.049 45.4744 144.094 46.9631C146.14 48.4403 147.27 50.4744 147.486 53.0653Z" fill="white"/>
<rect x="0.798676" y="0.752838" width="15" height="15" rx="3.5" fill="#18181B" stroke="#27272A"/>
<rect x="20.7987" y="0.752838" width="15" height="15" rx="3.5" fill="#4C1D95" stroke="#6D28D9"/>
<rect x="40.7987" y="0.752838" width="15" height="15" rx="3.5" fill="#5B21B6" stroke="#7C3AED"/>
<rect x="60.7987" y="0.752838" width="15" height="15" rx="3.5" fill="#6D28D9" stroke="#8B5CF6"/>
<rect x="80.7987" y="0.752838" width="15" height="15" rx="3.5" fill="#7C3AED" stroke="#A78BFA"/>
<rect x="100.799" y="0.752838" width="15" height="15" rx="3.5" fill="#8B5CF6" stroke="#C4B5FD"/>
</svg>
